<svg xmlns="http://www.w3.org/2000/svg" xmlns:xlink="http://www.w3.org/1999/xlink" viewBox="0 0 784.31 275.01"><defs><style>.cls-1{fill:#005ebc;}.cls-2{fill:url(#linear-gradient);}.cls-3{fill:url(#linear-gradient-2);}.cls-4{fill:url(#linear-gradient-3);}.cls-5{fill:url(#linear-gradient-4);}.cls-6{fill:url(#linear-gradient-5);}.cls-7{fill:url(#linear-gradient-6);}</style><linearGradient id="linear-gradient" x1="236.61" y1="385.77" x2="236.61" y2="614.23" gradientUnits="userSpaceOnUse"><stop offset="0" stop-color="#1c73ef"/><stop offset="1" stop-color="#002155"/></linearGradient><linearGradient id="linear-gradient-2" x1="245.98" y1="473.3" x2="245.98" y2="549.04" xlink:href="#linear-gradient"/><linearGradient id="linear-gradient-3" x1="140.7" y1="174.27" x2="140.7" y2="220.98" xlink:href="#linear-gradient"/><linearGradient id="linear-gradient-4" x1="127.62" y1="387.57" x2="127.62" y2="483.26" xlink:href="#linear-gradient"/><linearGradient id="linear-gradient-5" x1="237.27" y1="434.53" x2="237.27" y2="434.53" xlink:href="#linear-gradient"/><linearGradient id="linear-gradient-6" x1="308.86" y1="487.43" x2="287.28" y2="359.23" xlink:href="#linear-gradient"/></defs><g id="Layer_2" data-name="Layer 2"><path class="cls-1" d="M408.34,475.6V395h18.53l.72,12.22a23.33,23.33,0,0,1,7.76-9.85,19.49,19.49,0,0,1,11.5-3.44,21.88,21.88,0,0,1,4,.38,20.82,20.82,0,0,1,3.59,1l-2.15,21.08a14.32,14.32,0,0,0-3.24-.84,23.36,23.36,0,0,0-3.37-.23q-8.34,0-12.79,5.42T428.45,436V475.6Z" transform="translate(-105.81 -367.45)"/><path class="cls-1" d="M497.14,477.9a38.19,38.19,0,0,1-15.59-3.14,35.64,35.64,0,0,1-12.29-8.86,41.13,41.13,0,0,1-8.05-13.59,49.89,49.89,0,0,1-2.87-17.19,48.31,48.31,0,0,1,2.87-16.8,42,42,0,0,1,8-13.52,36.38,36.38,0,0,1,12-8.93,34.92,34.92,0,0,1,14.94-3.21,36.82,36.82,0,0,1,15.16,3A33.3,33.3,0,0,1,523,404.42a40.22,40.22,0,0,1,7.54,13.44,53.8,53.8,0,0,1,2.66,17.42v5.34H478.74q1.31,9,6.18,14.13a16.34,16.34,0,0,0,12.36,5.12,17.59,17.59,0,0,0,9.41-2.6,20,20,0,0,0,7-7.48l18,6.11a30.89,30.89,0,0,1-7.76,11.76,36.61,36.61,0,0,1-12.07,7.56A40.23,40.23,0,0,1,497.14,477.9Zm-1-68.74A15,15,0,0,0,485,413.74q-4.51,4.58-6,12.52h33.48q-1.15-7.93-5.53-12.52A14.41,14.41,0,0,0,496.13,409.16Z" transform="translate(-105.81 -367.45)"/><path class="cls-1" d="M543.55,475.6V395h18.53l.58,10.23a24.79,24.79,0,0,1,8.91-9.16,25.33,25.33,0,0,1,26.22.61,26.48,26.48,0,0,1,9.27,11,27.45,27.45,0,0,1,25-15,25.42,25.42,0,0,1,14.65,4.2,27.08,27.08,0,0,1,9.56,12,45.81,45.81,0,0,1,3.38,18.33V475.6H639.53V429.93q0-8.4-3.45-13.21a11.17,11.17,0,0,0-9.63-4.81,13.73,13.73,0,0,0-7.68,2.21,14.66,14.66,0,0,0-5.25,6.19,21,21,0,0,0-1.87,9V475.6H591.54V429.93q0-8.4-3.45-13.21a11.17,11.17,0,0,0-9.63-4.81,13.71,13.71,0,0,0-7.68,2.21,14.59,14.59,0,0,0-5.25,6.19,20.86,20.86,0,0,0-1.87,9V475.6Z" transform="translate(-105.81 -367.45)"/><path class="cls-1" d="M710.08,477.9a37.72,37.72,0,0,1-28.16-12.15,40.87,40.87,0,0,1-8.27-13.52,47.6,47.6,0,0,1-2.94-17,45.77,45.77,0,0,1,3-16.88,42.34,42.34,0,0,1,8.4-13.52,37.93,37.93,0,0,1,12.65-9,38.77,38.77,0,0,1,15.87-3.21,37.76,37.76,0,0,1,28.17,12.14,41.26,41.26,0,0,1,8.26,13.44,49.6,49.6,0,0,1-.07,33.84,42,42,0,0,1-8.41,13.59,38,38,0,0,1-12.64,9A38.82,38.82,0,0,1,710.08,477.9Zm.29-19.25a16.48,16.48,0,0,0,9.77-3.06,21,21,0,0,0,6.82-8.32,29.78,29.78,0,0,0,0-24,21,21,0,0,0-6.82-8.33,17.17,17.17,0,0,0-19.54,0,21.06,21.06,0,0,0-6.83,8.33,29.89,29.89,0,0,0,0,24,21,21,0,0,0,6.83,8.32A16.44,16.44,0,0,0,710.37,458.65Z" transform="translate(-105.81 -367.45)"/><path class="cls-1" d="M791.69,477.9a26.61,26.61,0,0,1-13.57-3.29,21.87,21.87,0,0,1-8.77-9.55,34.24,34.24,0,0,1-3.09-15.27V412.21H753.33V395h12.93v-27.5h20.12V395h20.69v17.26H786.38v35c0,3.87.76,6.85,2.3,8.94s3.88,3.13,7,3.13a20,20,0,0,0,5.24-.76,32.17,32.17,0,0,0,5.39-2l3.59,16a33.36,33.36,0,0,1-8.33,3.89A32.72,32.72,0,0,1,791.69,477.9Z" transform="translate(-105.81 -367.45)"/><path class="cls-1" d="M854.05,477.9a38.26,38.26,0,0,1-15.59-3.14,35.7,35.7,0,0,1-12.28-8.86,41.13,41.13,0,0,1-8-13.59,49.65,49.65,0,0,1-2.87-17.19,48.08,48.08,0,0,1,2.87-16.8,42,42,0,0,1,8-13.52,36.34,36.34,0,0,1,12-8.93,35,35,0,0,1,14.95-3.21,36.82,36.82,0,0,1,15.16,3,33.39,33.39,0,0,1,11.71,8.71,40.22,40.22,0,0,1,7.54,13.44,53.8,53.8,0,0,1,2.66,17.42v5.34H835.66q1.29,9,6.18,14.13a16.32,16.32,0,0,0,12.36,5.12,17.59,17.59,0,0,0,9.41-2.6,20,20,0,0,0,7-7.48l18,6.11a31,31,0,0,1-7.76,11.76,36.61,36.61,0,0,1-12.07,7.56A40.25,40.25,0,0,1,854.05,477.9Zm-1-68.74a15,15,0,0,0-11.14,4.58q-4.53,4.58-6,12.52h33.48q-1.15-7.93-5.53-12.52A14.41,14.41,0,0,0,853.05,409.16Z" transform="translate(-105.81 -367.45)"/><path class="cls-1" d="M408.34,610.54V529.88h18.53l.72,12.22a23.39,23.39,0,0,1,7.76-9.85,19.49,19.49,0,0,1,11.5-3.44,21.88,21.88,0,0,1,4,.38,20.82,20.82,0,0,1,3.59,1l-2.15,21.08a14.32,14.32,0,0,0-3.24-.84,23.36,23.36,0,0,0-3.37-.23q-8.34,0-12.79,5.42T428.45,571v39.57Z" transform="translate(-105.81 -367.45)"/><path class="cls-1" d="M497.71,612.83a37.72,37.72,0,0,1-28.16-12.15,40.68,40.68,0,0,1-8.26-13.52,47.38,47.38,0,0,1-3-16.95,46,46,0,0,1,3-16.88,42.34,42.34,0,0,1,8.4-13.52,38.07,38.07,0,0,1,12.65-9,38.77,38.77,0,0,1,15.87-3.21,37.76,37.76,0,0,1,28.17,12.14,41.14,41.14,0,0,1,8.26,13.45,47,47,0,0,1,2.95,16.88,46.54,46.54,0,0,1-3,17,42.09,42.09,0,0,1-8.41,13.6,38.13,38.13,0,0,1-12.64,9A38.82,38.82,0,0,1,497.71,612.83Zm.29-19.25a16.48,16.48,0,0,0,9.77-3.06,21,21,0,0,0,6.82-8.32,29.78,29.78,0,0,0,0-24,21,21,0,0,0-6.82-8.33,17.17,17.17,0,0,0-19.54,0,21.06,21.06,0,0,0-6.83,8.33,29.89,29.89,0,0,0,0,24,21,21,0,0,0,6.83,8.32A16.46,16.46,0,0,0,498,593.58Z" transform="translate(-105.81 -367.45)"/><path class="cls-1" d="M585.93,612.83a37.72,37.72,0,0,1-28.16-12.15,40.68,40.68,0,0,1-8.26-13.52,47.38,47.38,0,0,1-3-16.95,46,46,0,0,1,3-16.88,42.34,42.34,0,0,1,8.4-13.52,38.17,38.17,0,0,1,12.65-9,38.79,38.79,0,0,1,15.88-3.21,37.76,37.76,0,0,1,28.16,12.14,41.14,41.14,0,0,1,8.26,13.45,47,47,0,0,1,3,16.88,46.54,46.54,0,0,1-3,17,41.92,41.92,0,0,1-8.41,13.6,38,38,0,0,1-12.64,9A38.82,38.82,0,0,1,585.93,612.83Zm.29-19.25a16.46,16.46,0,0,0,9.77-3.06,21,21,0,0,0,6.82-8.32,29.78,29.78,0,0,0,0-24,21,21,0,0,0-6.82-8.33,17.17,17.17,0,0,0-19.54,0,21.06,21.06,0,0,0-6.83,8.33,29.89,29.89,0,0,0,0,24,21,21,0,0,0,6.83,8.32A16.46,16.46,0,0,0,586.22,593.58Z" transform="translate(-105.81 -367.45)"/><path class="cls-1" d="M642.11,610.54V546.68H629.18v-16.8h12.93V525.3a36.64,36.64,0,0,1,1.94-12.22,28.51,28.51,0,0,1,5.54-9.55,24.84,24.84,0,0,1,8.54-6.26,26.63,26.63,0,0,1,11-2.22,25.73,25.73,0,0,1,7.61,1.07,28.81,28.81,0,0,1,6,2.6l-4,16.19c-1-.4-2.15-.81-3.3-1.22a11.07,11.07,0,0,0-3.74-.61,8,8,0,0,0-7.11,3.51q-2.37,3.52-2.37,10.08v3.21h49.14v80.66H691.25V546.68h-29v63.86ZM712.81,508a12.85,12.85,0,0,1-1.51,6.26,11.47,11.47,0,0,1-4.17,4.35,11.32,11.32,0,0,1-11.64,0,11.37,11.37,0,0,1-4.16-4.35,13.75,13.75,0,0,1,0-12.53,11.37,11.37,0,0,1,4.16-4.35,11.39,11.39,0,0,1,11.64,0,11.47,11.47,0,0,1,4.17,4.35A12.92,12.92,0,0,1,712.81,508Z" transform="translate(-105.81 -367.45)"/><path class="cls-1" d="M725.31,610.54V529.88h18.53l.58,10.39a24.8,24.8,0,0,1,9.12-9.24,27.42,27.42,0,0,1,27.88.76,27.41,27.41,0,0,1,9.7,12,45,45,0,0,1,3.45,18.33v48.43H774.45V564.86q0-8.4-3.59-13.21a11.69,11.69,0,0,0-9.92-4.81,14.61,14.61,0,0,0-8,2.21,15.47,15.47,0,0,0-5.46,6.19,19.56,19.56,0,0,0-2,9v46.29Z" transform="translate(-105.81 -367.45)"/><path class="cls-1" d="M839.68,608.24a30.09,30.09,0,0,1-13.43-3,33.14,33.14,0,0,1-10.85-8.48A40.28,40.28,0,0,1,808.21,584a46.34,46.34,0,0,1-2.58-15.65,47.21,47.21,0,0,1,2.66-16.12,39.73,39.73,0,0,1,7.47-12.91A35.64,35.64,0,0,1,827,530.72a31.17,31.17,0,0,1,13.86-3.13,27.81,27.81,0,0,1,13.22,3.13,26.35,26.35,0,0,1,9.77,9.09l.43-9.93h18.54v71a49.18,49.18,0,0,1-2.8,17A38,38,0,0,1,872,631a35.35,35.35,0,0,1-12.28,8.48,40.32,40.32,0,0,1-15.74,3,39,39,0,0,1-15.23-2.83A36.11,36.11,0,0,1,817,631.77a37.1,37.1,0,0,1-7.9-11.76l19.25-5a19.51,19.51,0,0,0,6.68,7,18.6,18.6,0,0,0,19-.16,17.86,17.86,0,0,0,6.39-7.48,25.82,25.82,0,0,0,2.3-11.23v-6.57a27.52,27.52,0,0,1-9.84,8.63A27.83,27.83,0,0,1,839.68,608.24Zm4.89-18.94a16.2,16.2,0,0,0,9.41-2.82,20.21,20.21,0,0,0,6.54-7.64,25.66,25.66,0,0,0,0-21.84,20.13,20.13,0,0,0-6.54-7.64,17.06,17.06,0,0,0-18.82,0,20.13,20.13,0,0,0-6.54,7.64,25.56,25.56,0,0,0,0,21.84,20.21,20.21,0,0,0,6.54,7.64A16.17,16.17,0,0,0,844.57,589.3Z" transform="translate(-105.81 -367.45)"/></g><g id="Layer_4" data-name="Layer 4"><path class="cls-2" d="M361.32,452.23l-89.05-58.88a45.66,45.66,0,0,0-49.44-.6l-73.4,42.31v-34.2a13.33,13.33,0,0,0-13.29-13.29H119.25A13.33,13.33,0,0,0,106,400.86V600.94a13.33,13.33,0,0,0,13.29,13.29h16.89a13.33,13.33,0,0,0,13.29-13.29V496a18.58,18.58,0,0,1,9.3-16.11l78.54-45.35a18.62,18.62,0,0,1,19.58.61l80.46,53.32a13.33,13.33,0,0,0,18.42-3.74l9.33-14.07A13.32,13.32,0,0,0,361.32,452.23Z" transform="translate(-105.81 -367.45)"/><path class="cls-3" d="M309.61,498.39,258,464.86a23.12,23.12,0,0,0-24.07,0l-51.59,33.53a21.2,21.2,0,0,0-6.2,29.23h0a21.2,21.2,0,0,0,29.23,6.2l29-18.82a21.31,21.31,0,0,1,23.25,0l29,18.82a21.2,21.2,0,0,0,29.23-6.2h0A21.2,21.2,0,0,0,309.61,498.39Z" transform="translate(-105.81 -367.45)"/><circle class="cls-4" cx="140.7" cy="193.49" r="23.36"/><path class="cls-5" d="M149.43,435.06v-34.2a13.29,13.29,0,0,0-13.29-13.29h-17a13.29,13.29,0,0,0-13.29,13.29l.2,82.4a32.28,32.28,0,0,1,2-11.37c2.54-6.78,7-11.18,17.55-19.53C131.75,447.45,139.75,441.47,149.43,435.06Z" transform="translate(-105.81 -367.45)"/><path class="cls-6" d="M237.27,434.53" transform="translate(-105.81 -367.45)"/><path class="cls-7" d="M237.27,434.53c-.09-.21,6.62-3.54,13.27-6.29,10.89-4.52,28-10.14,53.62-13.76l57.12,37.58a13.28,13.28,0,0,1,3.83,18.36l-9.22,14.14a13.28,13.28,0,0,1-18.64,3.7c-2.61-1.78-5.48-3.73-8.57-5.8-5.25-3.52-7.28-4.82-23.72-15.55-15.85-10.35-23.8-15.54-24.92-16.35-22.58-16.26-17-11.43-17.74-12-5.6-3.79-9.47-6.41-15-6.58S237.35,434.71,237.27,434.53Z" transform="translate(-105.81 -367.45)"/></g></svg>