<svg height="480pt" viewBox="-16 0 480 480" width="480pt" xmlns="http://www.w3.org/2000/svg"><path d="m363.816406 407.753906c-1.261718-8.226562.730469-16.621094 5.550782-23.402344 1.1875-1.652343 2.527343-3.1875 4-4.589843 5.582031-5.300781 6.367187-13.917969 1.832031-20.136719-.457031-.667969-.972657-1.296875-1.535157-1.882812l-18.960937-18.964844c-6.246094-6.25-6.246094-16.378906 0-22.625l5.671875-5.671875c3.125-3.125 8.1875-3.125 11.3125 0l12.3125 12.238281v-314.71875h-224v96h-96v218.71875l12.265625-12.261719c3.121094-3.125 8.1875-3.125 11.308594 0l5.675781 5.671875c6.246094 6.246094 6.246094 16.375 0 22.625l-18.960938 18.964844c-.5625.585938-1.078124 1.214844-1.535156 1.882812-4.535156 6.21875-3.75 14.835938 1.832032 20.132813 1.472656 1.40625 2.808593 2.941406 4 4.59375 4.820312 6.78125 6.8125 15.175781 5.550781 23.398437l.101562.273438h279.523438zm-27.816406-191.753906h-224v-80h224zm0 0" fill="#9bc9ff"/><g fill="#1e81ce"><path d="m440.96875 317.65625-48.96875-48.96875v-268.6875h-235.3125l-100.6875 100.6875v168l-48.96875 48.96875c-4.515625 4.488281-7.0507812 10.597656-7.03125 16.96875v145.375h16v-145.375c0-2.121094.84375-4.15625 2.34375-5.65625l37.65625-37.65625v28.09375l-28.296875 28.296875 11.3125 11.3125 42.90625-42.902344 5.664063 5.671875c3.121093 3.121094 3.121093 8.1875 0 11.3125l-18.96875 18.964844c-4.457032 4.460938-6.921876 10.535156-6.832032 16.839844.085938 6.304687 2.71875 12.304687 7.296875 16.640625l.230469.21875c8.957031 8.578125 9.84375 22.589843 2.039062 32.230469l-13.597656 17.007812 12.496094 10 13.597656-17.015625c2.832032-3.59375 5.011719-7.65625 6.449219-12h22.246094c-.421875.648437-.710938 1.359375-1.199219 1.96875l-15.34375 19.238281v42.808594h16v-37.191406l11.832031-14.808594c2.875-3.585938 5.097657-7.648438 6.566407-12h187.203124c1.460938 4.332031 3.671876 8.378906 6.527344 11.953125l11.871094 14.855469v37.191406h16v-42.808594l-15.367188-19.238281c-.480468-.601563-.800781-1.3125-1.191406-1.953125h22.253906c1.433594 4.34375 3.617188 8.40625 6.449219 12l13.597657 17.007812 12.496093-10-13.597656-17c-7.765625-9.601562-6.925781-23.542968 1.933594-32.144531l.335937-.3125c4.578125-4.335937 7.210938-10.335937 7.296875-16.640625.089844-6.304687-2.375-12.378906-6.832031-16.839844l-18.96875-18.964843c-3.121094-3.125-3.121094-8.191407 0-11.3125l5.675781-5.671875 42.902344 42.902344 11.3125-11.3125-28.296875-28.304688v-28.09375l37.65625 37.65625c1.5 1.5 2.34375 3.535156 2.34375 5.65625v145.375h16v-145.375c.015625-6.367188-2.515625-12.476562-7.03125-16.96875zm-288.96875-290.34375v68.6875h-68.6875zm202.769531 277.488281-5.679687 5.671875c-9.371094 9.371094-9.371094 24.5625 0 33.933594l18.964844 18.96875c2.855468 2.878906 2.855468 7.523438 0 10.402344l-.222657.199218c-7.167969 6.851563-11.527343 16.128907-12.230469 26.023438h-263.203124c-.707032-9.910156-5.085938-19.203125-12.277344-26.054688l-.175782-.152343c-2.855468-2.878907-2.855468-7.523438 0-10.402344l18.964844-18.964844c9.371094-9.375 9.371094-24.566406 0-33.9375l-5.679687-5.679687c-5.761719-5.710938-14.886719-6.199219-21.230469-1.144532v-191.664062h96v-96h208v287.664062c-6.34375-5.058593-15.464844-4.570312-21.230469 1.136719zm0 0"/><path d="m200 64h16v16h-16zm0 0"/><path d="m232 64h112v16h-112zm0 0"/><path d="m200 96h16v16h-16zm0 0"/><path d="m232 96h112v16h-112zm0 0"/><path d="m216 320h96v16h-96zm0 0"/><path d="m216 352h96v16h-96zm0 0"/><path d="m104 224h240v-96h-240zm16-80h208v64h-208zm0 0"/><path d="m104 256h16v16h-16zm0 0"/><path d="m136 256h208v16h-208zm0 0"/><path d="m104 288h16v16h-16zm0 0"/><path d="m136 288h208v16h-208zm0 0"/></g></svg>