<?xml version="1.0"?>
<svg xmlns="http://www.w3.org/2000/svg" xmlns:xlink="http://www.w3.org/1999/xlink" version="1.1" id="Capa_1" x="0px" y="0px" viewBox="0 0 512.001 512.001" style="enable-background:new 0 0 512.001 512.001;" xml:space="preserve" width="512px" height="512px" class=""><g><g>
	<polygon style="fill:#82B1EA" points="503.467,315.734 503.467,349.867 477.867,349.867 477.867,349.867 256.001,8.534    281.601,8.534  " data-original="#FFA800" class="active-path" data-old_color="#FFA800"/>
	<path style="fill:#9BC9FF" d="M256.001,8.534h-25.6L8.534,315.734v34.133h469.333v-34.133L256.001,8.534z M145.067,315.734H50.603   l94.465-130.816V315.734z M238.934,315.734h-59.733V137.643l59.733-82.688V315.734z M332.801,315.734h-59.733V54.955l59.733,82.688   V315.734z M366.934,315.734V184.918l94.465,130.816H366.934z" data-original="#FEDD0A" class="" data-old_color="#FEDD0A"/>
	<polygon style="fill:#FFFFFF;" points="8.534,315.734 8.534,349.867 34.134,349.867 34.134,315.734 256.001,8.534 230.401,8.534     " data-original="#FFFFFF" class=""/>
	<g>
		<polygon style="fill:#9BC9FF" points="469.334,349.867 469.334,375.467 325.377,469.334 273.067,469.334 273.067,460.8     443.137,349.867   " data-original="#FEDD0A" class="" data-old_color="#FEDD0A"/>
		<polygon style="fill:#9BC9FF" points="238.934,460.8 238.934,469.334 186.625,469.334 42.667,375.467 42.667,349.867     68.865,349.867   " data-original="#FEDD0A" class="" data-old_color="#FEDD0A"/>
	</g>
	<polyline style="fill:#FFFFFF;" points="42.667,503.467 8.534,503.467 8.534,469.334 8.534,349.867 42.667,349.867 42.667,375.467    42.667,469.334  " data-original="#FFFFFF" class=""/>
	<rect x="238.934" y="349.867" style="fill:#9BC9FF" width="34.133" height="119.467" data-original="#FEDD0A" class="" data-old_color="#FEDD0A"/>
	<polyline style="fill:#82B1EA" points="469.334,469.334 469.334,375.467 469.334,349.867 503.467,349.867 503.467,469.334    503.467,503.467 469.334,503.467  " data-original="#FFA800" class="active-path" data-old_color="#FFA800"/>
	<rect x="34.134" y="469.334" style="fill:#9BC9FF" width="443.733" height="34.133" data-original="#FEDD0A" class="" data-old_color="#FEDD0A"/>
	<g>
		<path d="M42.667,477.867c-2.263,0.001-4.434-0.898-6.035-2.499c-1.6-1.6-2.499-3.771-2.499-6.035V358.4H17.067v8.538    c0,4.713-3.821,8.533-8.533,8.533s-8.533-3.82-8.533-8.533v-17.071c-0.001-2.263,0.898-4.434,2.499-6.035s3.771-2.499,6.035-2.499    h34.133c2.263-0.001,4.434,0.898,6.035,2.499c1.6,1.6,2.499,3.771,2.499,6.035v119.467c0.001,2.263-0.898,4.434-2.499,6.035    C47.102,476.969,44.931,477.868,42.667,477.867L42.667,477.867z" data-original="#000000" class="" data-old_color="#000000" style="fill:#1273EB"/>
		<path d="M42.667,512H8.534c-2.263,0.001-4.434-0.898-6.035-2.499c-1.6-1.6-2.499-3.771-2.499-6.035V435.2    c0-4.713,3.821-8.533,8.533-8.533s8.533,3.821,8.533,8.533v59.733h25.6c4.713,0,8.533,3.821,8.533,8.533S47.38,512,42.667,512z" data-original="#000000" class="" data-old_color="#000000" style="fill:#1273EB"/>
		<path d="M8.534,409.6c-2.262-0.016-4.432-0.902-6.059-2.475c-3.3-3.365-3.3-8.752,0-12.117c2.013-2.001,4.892-2.865,7.675-2.304    c0.566,0.079,1.115,0.25,1.625,0.508c0.543,0.188,1.059,0.447,1.533,0.771c0.425,0.341,0.858,0.683,1.283,1.025    c0.341,0.425,0.683,0.85,1.025,1.363c0.335,0.437,0.594,0.927,0.767,1.45c0.247,0.483,0.419,1.002,0.508,1.538    c0.104,0.564,0.163,1.135,0.175,1.708c-0.034,2.259-0.918,4.422-2.475,6.059c-0.406,0.367-0.835,0.708-1.283,1.021    c-0.475,0.324-0.99,0.583-1.533,0.771c-0.51,0.257-1.059,0.431-1.625,0.512C9.617,409.528,9.077,409.585,8.534,409.6z" data-original="#000000" class="" data-old_color="#000000" style="fill:#1273EB"/>
		<path d="M503.467,358.4H8.534c-2.263,0.001-4.434-0.898-6.035-2.499c-1.6-1.6-2.499-3.771-2.499-6.035v-34.133    c0-1.794,0.566-3.542,1.617-4.996l221.867-307.2c1.603-2.222,4.177-3.538,6.917-3.537h51.2c2.74-0.001,5.314,1.315,6.917,3.537    l221.867,307.2c1.051,1.454,1.616,3.202,1.617,4.996v34.133c0.001,2.263-0.898,4.434-2.499,6.035    C507.902,357.502,505.731,358.401,503.467,358.4L503.467,358.4z M17.067,341.334h477.867v-22.842l-217.7-301.425h-42.467    l-217.7,301.425V341.334z" data-original="#000000" class="" data-old_color="#000000" style="fill:#1273EB"/>
		<path d="M332.809,146.175c-2.744,0.006-5.322-1.311-6.925-3.537L266.151,59.95c-1.793-2.471-2.13-5.711-0.882-8.498    c1.247-2.786,3.888-4.694,6.926-5.002c3.037-0.308,6.008,1.03,7.79,3.508l59.733,82.688c1.877,2.596,2.141,6.025,0.684,8.878    C338.945,144.377,336.013,146.173,332.809,146.175L332.809,146.175z" data-original="#000000" class="" data-old_color="#000000" style="fill:#1273EB"/>
		<path d="M332.801,324.267h-59.733c-4.713,0-8.533-3.821-8.533-8.533c0-4.713,3.82-8.533,8.533-8.533h59.733    c4.713,0,8.533,3.821,8.533,8.533C341.334,320.447,337.514,324.267,332.801,324.267z" data-original="#000000" class="" data-old_color="#000000" style="fill:#1273EB"/>
		<path d="M461.401,324.267h-94.467c-4.713,0-8.533-3.821-8.533-8.533c0-4.713,3.82-8.533,8.533-8.533h77.775l-84.692-117.288    c-2.746-3.82-1.882-9.142,1.932-11.897c3.814-2.755,9.138-1.902,11.901,1.905l94.467,130.817c1.878,2.597,2.141,6.028,0.682,8.881    C467.541,322.473,464.606,324.268,461.401,324.267L461.401,324.267z" data-original="#000000" class="" data-old_color="#000000" style="fill:#1273EB"/>
		<path d="M145.067,324.267H50.601c-3.205,0.001-6.14-1.794-7.599-4.648c-1.459-2.854-1.195-6.284,0.682-8.881l94.467-130.817    c2.763-3.808,8.087-4.66,11.901-1.905c3.814,2.755,4.678,8.077,1.932,11.897L67.292,307.2h77.775c4.713,0,8.533,3.821,8.533,8.533    C153.601,320.447,149.78,324.267,145.067,324.267z" data-original="#000000" class="" data-old_color="#000000" style="fill:#1273EB"/>
		<path d="M179.192,146.175c-3.203-0.002-6.136-1.798-7.593-4.651c-1.457-2.853-1.193-6.282,0.684-8.878l59.733-82.688    c1.782-2.479,4.752-3.817,7.79-3.508c3.037,0.308,5.678,2.216,6.926,5.002c1.247,2.786,0.911,6.027-0.882,8.498l-59.733,82.688    C184.514,144.864,181.936,146.182,179.192,146.175L179.192,146.175z" data-original="#000000" class="" data-old_color="#000000" style="fill:#1273EB"/>
		<path d="M238.934,324.267h-59.733c-4.713,0-8.533-3.821-8.533-8.533c0-4.713,3.82-8.533,8.533-8.533h59.733    c4.713,0,8.533,3.821,8.533,8.533C247.467,320.447,243.647,324.267,238.934,324.267z" data-original="#000000" class="" data-old_color="#000000" style="fill:#1273EB"/>
		<path d="M238.934,324.267c-2.263,0.001-4.434-0.898-6.035-2.499c-1.6-1.6-2.499-3.771-2.499-6.035V54.954    c0-4.713,3.82-8.533,8.533-8.533s8.533,3.821,8.533,8.533v260.779c0.001,2.263-0.898,4.434-2.499,6.035    C243.368,323.369,241.197,324.268,238.934,324.267L238.934,324.267z" data-original="#000000" class="" data-old_color="#000000" style="fill:#1273EB"/>
		<path d="M273.067,324.267c-2.263,0.001-4.434-0.898-6.035-2.499c-1.6-1.6-2.499-3.771-2.499-6.035V54.954    c0-4.713,3.82-8.533,8.533-8.533s8.533,3.821,8.533,8.533v260.779c0.001,2.263-0.898,4.434-2.499,6.035    C277.502,323.369,275.331,324.268,273.067,324.267z" data-original="#000000" class="" data-old_color="#000000" style="fill:#1273EB"/>
		<path d="M273.067,477.867h-34.133c-2.263,0.001-4.434-0.898-6.035-2.499c-1.6-1.6-2.499-3.771-2.499-6.035V349.867    c-0.001-2.263,0.898-4.434,2.499-6.035c1.6-1.6,3.771-2.499,6.035-2.499h34.133c2.263-0.001,4.434,0.898,6.035,2.499    c1.6,1.6,2.499,3.771,2.499,6.035v119.467c0.001,2.263-0.898,4.434-2.499,6.035C277.502,476.969,275.331,477.868,273.067,477.867    L273.067,477.867z M247.467,460.8h17.067V358.4h-17.067V460.8z" data-original="#000000" class="" data-old_color="#000000" style="fill:#1273EB"/>
		<path d="M503.467,512h-34.133c-4.713,0-8.533-3.82-8.533-8.533s3.821-8.533,8.533-8.533h25.6V358.4h-17.067v110.933    c0,4.713-3.82,8.533-8.533,8.533s-8.533-3.821-8.533-8.533V349.867c-0.001-2.263,0.898-4.434,2.499-6.035s3.771-2.499,6.035-2.499    h34.133c2.263-0.001,4.434,0.898,6.035,2.499c1.6,1.6,2.499,3.771,2.499,6.035v153.6c0.001,2.263-0.898,4.434-2.499,6.035    C507.902,511.102,505.731,512.001,503.467,512L503.467,512z" data-original="#000000" class="" data-old_color="#000000" style="fill:#1273EB"/>
		<path d="M186.617,477.867c-1.652,0.002-3.268-0.479-4.65-1.383L38.009,382.617c-2.554-1.664-4.027-4.565-3.863-7.609    c0.164-3.044,1.94-5.77,4.658-7.15c2.719-1.38,5.967-1.205,8.521,0.459l143.958,93.867c3.167,2.062,4.601,5.962,3.523,9.584    C193.729,475.391,190.397,477.872,186.617,477.867z" data-original="#000000" class="" data-old_color="#000000" style="fill:#1273EB"/>
		<path d="M238.925,469.334c-1.652,0.003-3.269-0.48-4.65-1.388L64.209,357.013c-2.553-1.664-4.024-4.564-3.859-7.607    c0.165-3.043,1.941-5.767,4.658-7.146c2.718-1.379,5.965-1.203,8.518,0.461l170.067,110.933c3.167,2.061,4.6,5.961,3.522,9.582    C246.036,466.859,242.704,469.339,238.925,469.334L238.925,469.334z" data-original="#000000" class="" data-old_color="#000000" style="fill:#1273EB"/>
		<path d="M325.384,477.867c-3.779,0.005-7.112-2.477-8.19-6.099c-1.078-3.622,0.356-7.522,3.523-9.584l143.958-93.867    c3.949-2.573,9.236-1.457,11.808,2.492c2.573,3.949,1.457,9.236-2.492,11.808l-143.958,93.867    C328.652,477.388,327.036,477.869,325.384,477.867L325.384,477.867z" data-original="#000000" class="" data-old_color="#000000" style="fill:#1273EB"/>
		<path d="M273.076,469.334c-3.779,0.006-7.111-2.475-8.189-6.097c-1.078-3.622,0.355-7.521,3.522-9.582l170.067-110.933    c2.553-1.664,5.8-1.84,8.518-0.461c2.718,1.379,4.494,4.103,4.658,7.146c0.165,3.043-1.306,5.943-3.859,7.607L277.726,467.946    C276.345,468.854,274.728,469.336,273.076,469.334z" data-original="#000000" class="" data-old_color="#000000" style="fill:#1273EB"/>
		<path d="M503.467,512H8.534c-2.263,0.001-4.434-0.898-6.035-2.499c-1.6-1.6-2.499-3.771-2.499-6.035v-34.133    C0,467.07,0.899,464.9,2.499,463.299s3.771-2.499,6.035-2.499h494.933c2.263-0.001,4.434,0.898,6.035,2.499    c1.6,1.6,2.499,3.771,2.499,6.035v34.133c0.001,2.263-0.898,4.434-2.499,6.035C507.902,511.102,505.731,512.001,503.467,512z     M17.067,494.934h477.867v-17.067H17.067V494.934z" data-original="#000000" class="" data-old_color="#000000" style="fill:#1273EB"/>
		<path d="M145.067,324.267c-2.263,0.001-4.434-0.898-6.035-2.499c-1.6-1.6-2.499-3.771-2.499-6.035V184.917    c0-4.713,3.821-8.533,8.533-8.533s8.533,3.821,8.533,8.533v130.817c0.001,2.263-0.898,4.434-2.499,6.035    C149.502,323.369,147.331,324.268,145.067,324.267z" data-original="#000000" class="" data-old_color="#000000" style="fill:#1273EB"/>
		<path d="M179.201,324.267c-2.263,0.001-4.434-0.898-6.035-2.499c-1.6-1.6-2.499-3.771-2.499-6.035V137.642    c0-4.713,3.82-8.533,8.533-8.533s8.533,3.821,8.533,8.533v178.092c0.001,2.263-0.898,4.434-2.499,6.035    C183.635,323.369,181.464,324.268,179.201,324.267L179.201,324.267z" data-original="#000000" class="" data-old_color="#000000" style="fill:#1273EB"/>
		<path d="M332.801,324.267c-2.263,0.001-4.434-0.898-6.035-2.499c-1.6-1.6-2.499-3.771-2.499-6.035V137.642    c0-4.713,3.82-8.533,8.533-8.533s8.533,3.821,8.533,8.533v178.092c0.001,2.263-0.898,4.434-2.499,6.035    C337.235,323.369,335.064,324.268,332.801,324.267z" data-original="#000000" class="" data-old_color="#000000" style="fill:#1273EB"/>
		<path d="M366.934,324.267c-2.263,0.001-4.434-0.898-6.035-2.499c-1.6-1.6-2.499-3.771-2.499-6.035V184.917    c0-4.713,3.82-8.533,8.533-8.533s8.533,3.821,8.533,8.533v130.817c0.001,2.263-0.898,4.434-2.499,6.035    C371.368,323.369,369.197,324.268,366.934,324.267L366.934,324.267z" data-original="#000000" class="" data-old_color="#000000" style="fill:#1273EB"/>
	</g>
</g></g> </svg>
