<?xml version="1.0" standalone="no"?>
<!DOCTYPE svg PUBLIC "-//W3C//DTD SVG 20010904//EN"
 "http://www.w3.org/TR/2001/REC-SVG-20010904/DTD/svg10.dtd">
<svg version="1.0" xmlns="http://www.w3.org/2000/svg"
 width="984.000000pt" height="984.000000pt" viewBox="0 0 984.000000 984.000000"
 preserveAspectRatio="xMidYMid meet">
<metadata>
Created by potrace 1.11, written by Peter Selinger 2001-2013
</metadata>
<g transform="translate(0.000000,984.000000) scale(0.100000,-0.100000)"
fill="#000000" stroke="none">
<path d="M5169 9216 c-2 -2 -29 -7 -59 -10 -78 -8 -117 -15 -185 -32 -33 -9
-67 -17 -75 -19 -8 -2 -42 -13 -75 -24 -33 -12 -64 -23 -70 -25 -48 -16 -92
-36 -165 -74 -47 -25 -100 -52 -117 -60 -18 -9 -33 -20 -33 -24 0 -4 -4 -8 -9
-8 -9 0 -97 -49 -161 -89 -14 -8 -28 -14 -32 -13 -5 1 -8 -2 -8 -6 0 -4 -22
-19 -50 -33 -27 -13 -50 -27 -50 -31 0 -5 -4 -8 -10 -8 -13 0 -244 -133 -248
-142 -2 -5 -8 -8 -13 -8 -7 0 -128 -67 -199 -111 -8 -5 -44 -26 -80 -46 -36
-21 -78 -46 -95 -55 -16 -10 -42 -23 -57 -29 -16 -6 -28 -15 -28 -20 0 -5 -4
-9 -9 -9 -8 0 -261 -143 -356 -201 -16 -11 -37 -22 -45 -26 -8 -3 -46 -25 -85
-48 -38 -23 -122 -72 -185 -107 -63 -36 -203 -116 -310 -178 -107 -62 -211
-122 -230 -133 -19 -11 -48 -28 -65 -38 -16 -10 -39 -23 -50 -29 -11 -5 -41
-22 -67 -37 -121 -72 -211 -123 -218 -123 -5 0 -10 -3 -12 -7 -1 -5 -18 -16
-36 -26 -24 -14 -32 -15 -33 -5 -1 7 -3 310 -4 673 -2 677 -3 695 -42 790 -64
152 -208 269 -373 302 -39 8 -770 6 -815 -2 -77 -13 -164 -50 -203 -85 -9 -8
-30 -25 -45 -37 -16 -12 -41 -39 -58 -60 -16 -21 -33 -44 -39 -50 -6 -7 -8
-13 -4 -13 3 0 0 -7 -7 -16 -7 -9 -14 -21 -16 -28 -1 -6 -10 -31 -20 -56 -17
-43 -18 -222 -18 -3885 0 -2964 3 -3853 12 -3895 13 -58 50 -146 70 -168 7 -7
13 -17 13 -22 0 -17 102 -110 153 -139 117 -67 110 -66 567 -66 462 0 466 0
578 69 97 59 174 151 211 254 28 78 45 234 30 278 -4 12 -5 25 -1 28 9 9 9 76
0 76 -4 0 -5 6 -2 14 9 24 10 117 2 122 -5 3 -5 10 -1 17 9 15 10 117 1 144
-4 12 -4 25 1 27 5 3 6 18 4 33 -2 16 -4 42 -3 58 1 17 3 46 4 65 1 19 -1 45
-5 56 -4 12 -5 25 -1 28 9 9 9 76 0 76 -4 0 -5 6 -2 14 9 24 10 117 2 122 -5
3 -5 10 -1 17 9 15 10 436 1 464 -4 12 -4 25 1 27 5 3 6 18 4 33 -2 16 -4 42
-3 58 1 17 3 46 4 65 1 19 -1 45 -5 56 -4 12 -5 25 -1 28 9 9 9 76 0 76 -4 0
-5 6 -2 14 9 24 10 117 2 122 -5 3 -5 10 -1 17 9 15 10 756 1 784 -4 12 -4 25
1 27 5 3 6 18 4 33 -2 16 -4 42 -3 58 1 17 3 46 4 65 1 19 -1 45 -5 56 -4 12
-5 25 -1 28 9 9 9 76 0 76 -4 0 -5 6 -2 14 9 24 10 117 2 122 -5 3 -5 10 -1
17 9 15 10 436 1 464 -4 12 -4 25 1 27 5 3 6 18 4 33 -5 35 -5 24 1 173 4 109
7 137 20 185 50 189 170 343 341 440 28 16 53 33 57 39 4 6 8 7 8 3 0 -4 25 8
55 28 31 19 57 35 59 35 3 0 54 29 115 65 60 36 114 65 120 65 6 0 11 4 11 8
0 5 23 19 50 32 28 13 50 27 50 32 0 4 6 8 13 8 6 1 37 16 67 35 30 19 66 40
80 47 14 7 65 36 114 65 49 29 90 53 92 53 3 0 120 68 154 90 8 5 36 21 62 35
26 13 88 49 139 80 50 30 93 55 94 55 1 0 54 30 116 66 63 37 139 80 169 97
30 17 66 38 80 47 14 9 50 31 80 47 30 17 84 47 120 68 36 21 81 46 100 57 19
11 37 23 40 27 3 3 35 21 73 40 37 19 67 38 67 43 0 4 8 8 19 8 10 0 24 6 30
13 6 8 29 22 51 32 22 10 40 22 40 27 0 4 8 8 18 8 11 0 27 9 37 20 10 11 26
20 36 20 9 0 19 3 21 8 3 7 125 82 134 82 3 0 121 69 154 90 8 6 21 13 27 16
7 3 63 35 125 70 61 35 120 64 129 64 10 0 20 4 23 9 5 8 96 36 155 48 88 18
253 2 350 -34 52 -19 164 -81 233 -130 26 -18 52 -33 58 -33 5 0 10 -4 10 -10
0 -5 6 -10 14 -10 8 0 16 -4 18 -8 4 -10 219 -152 230 -152 4 0 8 -4 8 -10 0
-5 7 -10 15 -10 8 0 15 -4 15 -10 0 -5 4 -10 9 -10 8 0 171 -106 198 -130 7
-5 17 -10 23 -10 5 0 10 -3 10 -8 0 -4 17 -16 37 -27 20 -11 41 -24 48 -30 23
-21 75 -55 84 -55 5 0 11 -4 13 -8 4 -11 155 -112 167 -112 5 0 11 -4 13 -8 2
-5 53 -41 113 -80 61 -39 117 -76 125 -82 103 -71 321 -210 329 -210 6 0 11
-4 11 -8 0 -5 16 -17 35 -28 19 -10 35 -22 35 -26 0 -5 7 -8 15 -8 8 0 15 -4
15 -10 0 -5 4 -10 9 -10 7 0 136 -81 196 -125 11 -7 72 -48 135 -89 63 -41
120 -78 125 -83 16 -13 176 -117 213 -138 17 -11 32 -22 32 -26 0 -4 14 -12
30 -19 17 -7 30 -17 30 -22 0 -5 5 -6 10 -3 6 3 10 2 10 -2 0 -5 15 -17 33
-28 17 -10 37 -23 42 -27 24 -19 87 -58 94 -58 5 0 11 -7 15 -15 3 -8 10 -15
16 -15 6 0 40 -20 76 -45 35 -25 68 -45 73 -45 5 0 11 -3 13 -8 5 -12 180
-125 213 -136 17 -6 33 -15 37 -21 4 -5 8 -7 8 -3 0 3 20 0 44 -7 44 -13 171
-13 235 0 43 8 143 57 185 88 70 54 85 74 301 407 38 58 72 107 77 108 4 2 8
8 8 14 0 9 57 97 70 108 12 10 60 116 73 160 18 60 21 167 7 238 -11 52 -50
147 -75 181 -30 41 -137 140 -164 152 -17 8 -31 17 -31 21 0 5 -6 8 -14 8 -8
0 -16 4 -18 8 -3 8 -104 77 -133 92 -5 3 -158 103 -338 223 -181 119 -332 217
-338 217 -5 0 -9 4 -9 8 0 4 -15 16 -32 27 -30 17 -401 261 -756 497 -74 48
-138 88 -143 88 -5 0 -9 4 -9 8 0 5 -12 15 -27 23 -16 8 -30 16 -33 20 -3 3
-23 16 -45 29 -22 13 -45 29 -52 35 -6 5 -60 41 -120 80 -59 38 -215 140 -346
227 -131 87 -242 158 -246 158 -5 0 -11 4 -13 8 -3 7 -285 198 -313 212 -25
13 -190 126 -193 133 -2 4 -8 7 -13 7 -5 0 -44 24 -87 53 -42 28 -95 61 -117
72 -22 11 -42 22 -45 25 -5 5 -136 65 -180 83 -14 5 -34 13 -45 18 -27 11
-193 56 -230 63 -16 3 -43 8 -60 11 -16 3 -41 7 -55 11 -28 6 -375 15 -381 10z"/>
<path d="M5169 6365 c-2 -2 -20 -6 -39 -9 -19 -3 -60 -13 -90 -22 -30 -8 -61
-16 -67 -16 -7 -1 -13 -5 -13 -10 0 -4 -8 -8 -18 -8 -11 0 -56 -22 -102 -50
-46 -27 -87 -50 -91 -50 -4 0 -9 -3 -11 -8 -1 -4 -28 -23 -58 -41 -30 -19 -65
-44 -77 -55 -13 -10 -23 -15 -23 -10 0 5 -4 4 -8 -1 -6 -9 -84 -63 -107 -75
-5 -3 -41 -26 -80 -51 -222 -145 -373 -244 -475 -310 -63 -40 -116 -77 -118
-81 -2 -5 -8 -8 -13 -8 -5 0 -50 -27 -99 -60 -49 -33 -94 -60 -100 -60 -5 0
-10 -4 -10 -8 0 -4 -15 -16 -32 -27 -18 -10 -96 -60 -173 -110 -77 -50 -176
-114 -220 -142 -44 -29 -86 -57 -92 -63 -7 -6 -13 -7 -13 -3 0 4 -4 3 -8 -3
-4 -5 -54 -41 -111 -79 -133 -88 -241 -193 -278 -271 -9 -19 -20 -34 -24 -34
-4 0 -10 -12 -14 -27 -3 -15 -10 -30 -14 -33 -7 -5 -45 -122 -57 -175 -9 -37
-9 -257 -1 -304 13 -69 78 -236 109 -276 111 -146 187 -214 311 -278 37 -20
67 -33 67 -31 0 2 12 -2 28 -9 33 -18 113 -37 168 -41 22 -1 45 -5 50 -7 13
-7 161 4 212 16 12 3 30 7 40 9 10 2 35 11 55 20 20 8 37 13 37 11 0 -6 147
72 163 86 24 21 348 229 357 229 4 0 10 4 12 8 2 4 21 19 43 32 22 13 45 28
50 33 6 4 48 32 95 62 47 30 92 59 100 65 8 5 53 35 100 65 47 30 92 60 100
65 128 87 296 189 320 195 3 1 17 7 32 13 165 69 391 73 563 10 37 -13 136
-60 150 -71 18 -13 146 -97 149 -97 2 0 78 -49 170 -110 91 -60 170 -110 175
-110 5 0 11 -4 13 -8 2 -6 203 -140 266 -177 9 -6 52 -34 95 -63 43 -28 83
-52 88 -52 5 0 9 -4 9 -8 0 -5 10 -14 23 -21 26 -14 47 -27 105 -64 132 -85
272 -133 384 -132 27 0 48 -2 48 -5 0 -3 15 -4 33 -3 167 13 301 56 426 137
46 29 191 165 191 178 0 4 7 16 17 27 44 52 102 186 129 300 13 53 12 265 -2
311 -7 25 -13 45 -13 45 1 0 -6 23 -14 51 -14 47 -68 163 -88 188 -67 84 -122
146 -149 166 -19 14 -46 35 -61 48 -15 12 -31 22 -35 22 -5 0 -25 14 -44 30
-19 16 -39 30 -43 30 -4 0 -61 36 -127 80 -66 44 -122 80 -125 80 -3 0 -11 5
-18 11 -14 12 -299 199 -304 199 -2 0 -32 20 -67 45 -36 25 -70 45 -75 45 -6
0 -11 5 -11 10 0 6 -6 10 -13 10 -8 0 -22 9 -32 20 -10 11 -23 20 -28 20 -6 0
-25 11 -43 25 -18 14 -35 25 -39 25 -3 0 -11 5 -18 11 -7 6 -70 48 -142 94
-71 46 -135 89 -142 94 -7 6 -14 11 -17 11 -5 0 -126 79 -264 171 -40 27 -75
49 -78 49 -3 0 -10 5 -17 10 -21 18 -116 80 -122 80 -3 0 -11 5 -18 11 -27 24
-182 119 -194 119 -7 0 -13 5 -13 10 0 6 -8 10 -18 10 -10 0 -22 4 -28 9 -9
10 -91 36 -159 53 -39 9 -279 20 -286 13z"/>
<path d="M5228 3505 c-2 -1 -23 -5 -48 -9 -25 -3 -58 -8 -75 -12 -16 -3 -35
-7 -42 -8 -7 -1 -16 -5 -19 -9 -4 -4 -14 -7 -21 -7 -20 0 -157 -61 -161 -71
-2 -5 -8 -9 -14 -9 -19 0 -103 -65 -168 -130 -64 -64 -73 -75 -116 -136 -49
-68 -116 -227 -129 -304 -14 -88 -18 -122 -19 -180 -1 -36 2 -81 6 -100 4 -19
9 -51 11 -70 3 -19 15 -65 26 -102 86 -268 293 -476 566 -567 117 -39 293 -55
390 -37 17 4 46 9 65 12 19 3 42 10 50 14 8 4 17 8 20 8 11 -2 59 16 119 43
79 37 169 98 237 164 56 54 159 192 170 228 3 12 13 30 22 40 8 9 12 17 9 17
-3 0 3 20 14 45 11 25 17 49 14 54 -3 5 -1 12 4 15 5 4 12 25 16 49 4 23 9 51
12 62 6 31 5 216 -2 255 -19 105 -85 289 -107 298 -4 2 -8 8 -8 14 0 20 -66
105 -135 173 -63 64 -153 135 -170 135 -4 0 -18 9 -32 20 -14 11 -29 17 -34
14 -5 -3 -9 -1 -9 4 0 6 -11 13 -25 16 -13 3 -37 11 -52 18 -71 29 -167 47
-270 52 -51 2 -93 2 -95 1z"/>
</g>
</svg>
