<?xml version="1.0"?>
<svg xmlns="http://www.w3.org/2000/svg" xmlns:xlink="http://www.w3.org/1999/xlink" version="1.1" id="Capa_1" x="0px" y="0px" viewBox="0 0 512 512" style="enable-background:new 0 0 512 512;" xml:space="preserve" width="512px" height="512px" class=""><g><g>
	<polygon style="fill:#99C0ED" points="281.6,8.533 256,8.533 477.867,315.733 477.867,349.867 503.467,349.867 503.467,315.733     " data-original="#FFA800" class="" data-old_color="#FFA800"/>
	<g>
		<path style="fill:#ADD3FE" d="M256,8.533h-25.6L8.533,315.733v34.133h469.333v-34.133L256,8.533z M238.933,315.733H50.603    L213.333,90.368l25.6-35.413V315.733z M273.067,315.733V54.955l188.331,260.779H273.067z" data-original="#FEDD0A" class="active-path" data-old_color="#FEDD0A"/>
		<polygon style="fill:#ADD3FE" points="469.333,349.867 469.333,375.467 325.376,469.333 273.067,469.333 273.067,460.8     443.136,349.867   " data-original="#FEDD0A" class="active-path" data-old_color="#FEDD0A"/>
		<polygon style="fill:#ADD3FE" points="238.933,460.8 238.933,469.333 186.624,469.333 42.667,375.467 42.667,349.867     68.864,349.867   " data-original="#FEDD0A" class="active-path" data-old_color="#FEDD0A"/>
	</g>
	<polyline style="fill:#FFFFFF;" points="42.667,503.467 8.533,503.467 8.533,469.333 8.533,349.867 42.667,349.867 42.667,375.467    42.667,469.333  " data-original="#FFFFFF" class=""/>
	<rect x="238.933" y="349.867" style="fill:#ADD3FE" width="34.133" height="119.467" data-original="#FEDD0A" class="active-path" data-old_color="#FEDD0A"/>
	<polyline style="fill:#99C0ED" points="469.333,469.333 469.333,375.467 469.333,349.867 503.467,349.867 503.467,469.333    503.467,503.467 469.333,503.467  " data-original="#FFA800" class="" data-old_color="#FFA800"/>
	<rect x="34.133" y="469.333" style="fill:#ADD3FE" width="443.733" height="34.133" data-original="#FEDD0A" class="active-path" data-old_color="#FEDD0A"/>
	<polygon style="fill:#FFFFFF;" points="8.533,315.733 8.533,349.867 34.133,349.867 34.133,315.733 256,8.533 230.4,8.533  " data-original="#FFFFFF" class=""/>
	<g>
		<path d="M503.467,358.4H8.533c-2.263,0.001-4.434-0.898-6.035-2.499S-0.001,352.13,0,349.867v-34.133    c0-1.794,0.566-3.542,1.617-4.996l221.867-307.2C225.086,1.315,227.66-0.001,230.4,0h51.2c2.74-0.001,5.314,1.315,6.917,3.537    l221.867,307.2c1.051,1.454,1.616,3.202,1.617,4.996v34.133c0.001,2.263-0.898,4.434-2.499,6.035    C507.901,357.502,505.73,358.401,503.467,358.4L503.467,358.4z M17.067,341.333h477.867v-22.842l-217.7-301.425h-42.467    l-217.7,301.425V341.333z" data-original="#000000" class="" style="fill:#005FBD" data-old_color="#000000"/>
		<path d="M461.4,324.267H273.067c-4.713,0-8.533-3.821-8.533-8.533c0-4.713,3.82-8.533,8.533-8.533h171.642L266.15,59.95    c-1.793-2.471-2.13-5.711-0.882-8.498c1.247-2.786,3.888-4.694,6.926-5.002c3.037-0.308,6.008,1.03,7.79,3.508l188.333,260.779    c1.878,2.597,2.141,6.028,0.682,8.881C467.54,322.473,464.605,324.268,461.4,324.267L461.4,324.267z" data-original="#000000" class="" style="fill:#005FBD" data-old_color="#000000"/>
		<path d="M238.933,324.267H50.6c-3.205,0.001-6.14-1.794-7.599-4.648c-1.459-2.854-1.195-6.284,0.682-8.881L232.017,49.958    c1.782-2.479,4.753-3.817,7.79-3.508c3.037,0.308,5.678,2.216,6.926,5.002c1.247,2.786,0.911,6.027-0.882,8.498L67.292,307.2    h171.642c4.713,0,8.533,3.821,8.533,8.533C247.467,320.446,243.646,324.267,238.933,324.267z" data-original="#000000" class="" style="fill:#005FBD" data-old_color="#000000"/>
		<path d="M238.933,324.267c-2.263,0.001-4.434-0.898-6.035-2.499c-1.6-1.6-2.499-3.771-2.499-6.035V54.954    c0-4.713,3.821-8.533,8.533-8.533s8.533,3.821,8.533,8.533v260.779c0.001,2.263-0.898,4.434-2.499,6.035    C243.368,323.368,241.197,324.267,238.933,324.267L238.933,324.267z" data-original="#000000" class="" style="fill:#005FBD" data-old_color="#000000"/>
		<path d="M273.067,324.267c-2.263,0.001-4.434-0.898-6.035-2.499s-2.499-3.771-2.499-6.035V54.954c0-4.713,3.82-8.533,8.533-8.533    s8.533,3.821,8.533,8.533v260.779c0.001,2.263-0.898,4.434-2.499,6.035C277.501,323.368,275.33,324.267,273.067,324.267z" data-original="#000000" class="" style="fill:#005FBD" data-old_color="#000000"/>
		<path d="M42.667,477.867c-2.263,0.001-4.434-0.898-6.035-2.499c-1.6-1.6-2.499-3.771-2.499-6.035V358.4H17.067v8.538    c0,4.713-3.821,8.533-8.533,8.533S0,371.65,0,366.938v-17.071c-0.001-2.263,0.898-4.434,2.499-6.035s3.771-2.499,6.035-2.499    h34.133c2.263-0.001,4.434,0.898,6.035,2.499s2.499,3.771,2.499,6.035v119.467c0.001,2.263-0.898,4.434-2.499,6.035    S44.93,477.867,42.667,477.867L42.667,477.867z" data-original="#000000" class="" style="fill:#005FBD" data-old_color="#000000"/>
		<path d="M42.667,512H8.533c-2.263,0.001-4.434-0.898-6.035-2.499c-1.6-1.6-2.499-3.771-2.499-6.035V435.2    c0-4.713,3.821-8.533,8.533-8.533s8.533,3.82,8.533,8.533v59.733h25.6c4.713,0,8.533,3.821,8.533,8.533    C51.2,508.18,47.379,512,42.667,512z" data-original="#000000" class="" style="fill:#005FBD" data-old_color="#000000"/>
		<path d="M8.533,409.6c-2.259-0.033-4.422-0.917-6.059-2.475C0.9,405.5,0.014,403.33,0,401.067c0.03-2.26,0.914-4.424,2.475-6.059    c3.421-3.158,8.695-3.158,12.117,0c3.3,3.365,3.3,8.752,0,12.117C12.954,408.681,10.792,409.565,8.533,409.6L8.533,409.6z" data-original="#000000" class="" style="fill:#005FBD" data-old_color="#000000"/>
		<path d="M273.067,477.867h-34.133c-2.263,0.001-4.434-0.898-6.035-2.499c-1.6-1.6-2.499-3.771-2.499-6.035V349.867    c-0.001-2.263,0.898-4.434,2.499-6.035c1.6-1.6,3.771-2.499,6.035-2.499h34.133c2.263-0.001,4.434,0.898,6.035,2.499    c1.6,1.6,2.499,3.771,2.499,6.035v119.467c0.001,2.263-0.898,4.434-2.499,6.035C277.501,476.968,275.33,477.867,273.067,477.867    L273.067,477.867z M247.467,460.8h17.067V358.4h-17.067V460.8z" data-original="#000000" class="" style="fill:#005FBD" data-old_color="#000000"/>
		<path d="M503.467,512h-34.133c-4.713,0-8.533-3.82-8.533-8.533c0-4.713,3.821-8.533,8.533-8.533h25.6V358.4h-17.067v110.933    c0,4.713-3.821,8.533-8.533,8.533c-4.713,0-8.533-3.821-8.533-8.533V349.867c-0.001-2.263,0.898-4.434,2.499-6.035    s3.771-2.499,6.035-2.499h34.133c2.263-0.001,4.434,0.898,6.035,2.499c1.6,1.6,2.499,3.771,2.499,6.035v153.6    c0.001,2.263-0.898,4.434-2.499,6.035C507.901,511.102,505.73,512.001,503.467,512L503.467,512z" data-original="#000000" class="" style="fill:#005FBD" data-old_color="#000000"/>
		<path d="M186.617,477.867c-1.652,0.002-3.268-0.479-4.65-1.383L38.008,382.617c-2.554-1.664-4.027-4.565-3.863-7.609    c0.164-3.044,1.94-5.77,4.658-7.15c2.719-1.38,5.967-1.205,8.521,0.459l143.958,93.867c3.167,2.062,4.601,5.962,3.523,9.584    C193.729,475.39,190.396,477.872,186.617,477.867z" data-original="#000000" class="" style="fill:#005FBD" data-old_color="#000000"/>
		<path d="M238.925,469.333c-1.652,0.003-3.269-0.48-4.65-1.388L64.208,357.012c-2.553-1.664-4.024-4.564-3.859-7.607    c0.165-3.043,1.941-5.767,4.658-7.146c2.718-1.379,5.965-1.203,8.518,0.461l170.067,110.933c3.167,2.061,4.6,5.961,3.522,9.582    C246.036,466.858,242.703,469.339,238.925,469.333L238.925,469.333z" data-original="#000000" class="" style="fill:#005FBD" data-old_color="#000000"/>
		<path d="M325.383,477.867c-3.779,0.005-7.112-2.477-8.19-6.099s0.356-7.522,3.523-9.584l143.958-93.867    c3.949-2.573,9.236-1.457,11.808,2.492c2.573,3.949,1.457,9.236-2.492,11.808l-143.958,93.867    C328.652,477.388,327.035,477.869,325.383,477.867L325.383,477.867z" data-original="#000000" class="" style="fill:#005FBD" data-old_color="#000000"/>
		<path d="M273.075,469.333c-3.779,0.006-7.111-2.475-8.189-6.097c-1.078-3.622,0.355-7.521,3.522-9.582l170.067-110.933    c2.553-1.664,5.8-1.84,8.518-0.461c2.718,1.379,4.494,4.103,4.658,7.146c0.165,3.043-1.306,5.943-3.859,7.607L277.725,467.946    C276.345,468.854,274.728,469.336,273.075,469.333z" data-original="#000000" class="" style="fill:#005FBD" data-old_color="#000000"/>
		<path d="M503.467,512H8.533c-2.263,0.001-4.434-0.898-6.035-2.499c-1.6-1.6-2.499-3.771-2.499-6.035v-34.133    c-0.001-2.263,0.898-4.434,2.499-6.035s3.771-2.499,6.035-2.499h494.933c2.263-0.001,4.434,0.898,6.035,2.499    c1.6,1.6,2.499,3.771,2.499,6.035v34.133c0.001,2.263-0.898,4.434-2.499,6.035C507.901,511.102,505.73,512.001,503.467,512z     M17.067,494.933h477.867v-17.067H17.067V494.933z" data-original="#000000" class="" style="fill:#005FBD" data-old_color="#000000"/>
	</g>
</g></g> </svg>
