<?xml version="1.0"?><svg xmlns="http://www.w3.org/2000/svg" id="Layer_3" enable-background="new 0 0 64 64" height="512px" viewBox="0 0 64 64" width="512px" class=""><g><path d="m49.293 13.293 1.414 1.414 3.293-3.293v7.586h2v-9.586l.707-.707-1.414-1.414-.707.707h-9.586v2h7.586z" fill="#8892a0" data-original="#8892A0" class="" style="fill:#9EA7B2" data-old_color="#8892a0"/><path d="m58 10c-2.206 0-4-1.794-4-4s1.794-4 4-4 4 1.794 4 4-1.794 4-4 4zm0-6c-1.103 0-2 .897-2 2s.897 2 2 2 2-.897 2-2-.897-2-2-2z" fill="#4d5d7a" data-original="#4D5D7A" class="active-path" style="fill:#005FBD" data-old_color="#4d5d7a"/><path d="m42 18-5 5 4 4 5-5" fill="#8892a0" data-original="#8892A0" class="" style="fill:#9EA7B2" data-old_color="#8892a0"/><path d="m22.379 18.843h4.243v11.314h-4.243z" fill="#8892a0" transform="matrix(.707 -.707 .707 .707 -10.148 24.5)" data-original="#8892A0" class="" style="fill:#9EA7B2" data-old_color="#8892a0"/><path d="m38.379 34.843h4.243v11.314h-4.243z" fill="#8892a0" transform="matrix(.707 -.707 .707 .707 -16.776 40.5)" data-original="#8892A0" class="" style="fill:#9EA7B2" data-old_color="#8892a0"/><path d="m12.944 27.722h31.113v15.556h-31.113z" fill="#2d4d83" transform="matrix(.707 -.707 .707 .707 -16.755 30.55)" data-original="#2D4D83" class="" style="fill:#005FBD" data-old_color="#2d4d83"/><g fill="#4472b2"><path d="m16.879 37.222h4.243v15.556h-4.243z" transform="matrix(.707 -.707 .707 .707 -26.255 26.615)" data-original="#4472B2" class="" style="fill:#ADD3FE" data-old_color="#4472B2"/><path d="m30 23 3 3-7 7-3-3" data-original="#4472B2" class="" style="fill:#ADD3FE" data-old_color="#4472B2"/><path d="m41 34-3-3-7 7 3 3" data-original="#4472B2" class="" style="fill:#ADD3FE" data-old_color="#4472B2"/><path d="m15 24 7-2 2-7-15-13-7 7z" data-original="#4472B2" class="" style="fill:#ADD3FE" data-old_color="#4472B2"/><path d="m40 49 2-7 7-2 13 15-7 7z" data-original="#4472B2" class="" style="fill:#ADD3FE" data-old_color="#4472B2"/></g><path d="m43.222 5.222 15.556 15.556c-1.99 1.991-4.74 3.222-7.778 3.222-6.075 0-11-4.925-11-11 0-3.038 1.231-5.788 3.222-7.778z" fill="#2d4d83" data-original="#2D4D83" class="" style="fill:#005FBD" data-old_color="#2d4d83"/><path d="m40.546 9.587c1.526 4.875 6.076 8.413 11.454 8.413 1.212 0 2.38-.183 3.483-.517l-12.261-12.261c-1.209 1.209-2.133 2.701-2.676 4.365z" fill="#4472b2" data-original="#4472B2" class="" style="fill:#ADD3FE" data-old_color="#4472b2"/><path d="m18.914 17.5 3.701-3.701-1.515-1.313-3.6 3.6-4.586-4.586 3.272-3.272-1.515-1.313-3.171 3.171-5.293-5.293-1.414 1.414 5.293 5.293-3.171 3.171 1.313 1.515 3.272-3.272 4.586 4.586-3.6 3.6 1.313 1.515 3.701-3.701 3.4 3.4 1.1-.314.314-1.1z" fill="#2d4d83" data-original="#2D4D83" class="" style="fill:#005FBD" data-old_color="#2d4d83"/><path d="m45.086 46.5-3.701 3.701 1.515 1.313 3.6-3.6 4.586 4.586-3.272 3.272 1.515 1.313 3.171-3.171 5.293 5.293 1.414-1.414-5.293-5.293 3.171-3.171-1.313-1.515-3.272 3.272-4.586-4.586 3.6-3.6-1.313-1.515-3.701 3.701-3.4-3.4-1.1.314-.314 1.1z" fill="#2d4d83" data-original="#2D4D83" class="" style="fill:#005FBD" data-old_color="#2d4d83"/></g> </svg>