<svg width="512" height="347" viewBox="0 0 512 347" fill="none" xmlns="http://www.w3.org/2000/svg"><g clip-path="url(#clip0)"><path d="M400 512H112C85.5234 512 64 490.473 64 464.001V277.339H26.6641C11.9687 277.339 0 265.371 0 250.672C0 243.614 2.87891 236.7 7.89453 231.688L244.926 4.45284C251.027 -1.39463 260.629 -1.5001 266.836 4.23801L341.332 72.9273V37.3464C341.332 28.5146 348.5 21.3469 357.332 21.3469H432C440.832 21.3469 448 28.5146 448 37.3464V176.541L504 231.579C509.121 236.7 512 243.614 512 250.672C512 265.371 500.031 277.339 485.332 277.339H448V464.001C448 490.473 426.473 512 400 512V512ZM39.8711 245.34H80C88.832 245.34 96 252.508 96 261.34V464.001C96 472.833 103.168 480.001 112 480.001H400C408.832 480.001 416 472.833 416 464.001V261.34C416 252.508 423.168 245.34 432 245.34H472.363L420.801 194.674C417.727 191.666 416 187.549 416 183.26V53.3459H373.332V109.45C373.332 115.809 369.578 121.547 363.754 124.105C357.973 126.687 351.168 125.516 346.496 121.203L256.211 37.9635L39.8711 245.34Z" fill="#005FBD"/></g><defs><clipPath id="clip0"><rect width="512" height="347" fill="white"/></clipPath></defs></svg>