<?xml version="1.0"?>
<svg xmlns="http://www.w3.org/2000/svg" height="512px" viewBox="0 -1 480 480" width="512px"><g><path d="m432 16h-72c-39.746094.042969-71.957031 32.253906-72 72v40h-16v48h15.527344c-4.105469 36.414062-34.882813 63.949219-71.527344 64h-16c-36.644531-.050781-67.421875-27.585938-71.527344-64h15.527344v-48h-16v-80h16v-48h-144v48h16v80h-16v48h16.199219c3.15625 70.796875 46.621093 133.515625 111.800781 161.328125 17.511719 17.046875 29.3125 32.039063 32.390625 41.199219 2.730469 8.191406-1.246094 19.097656-5.453125 30.648437-5.921875 16.28125-12.640625 34.71875-1.601562 51.265625 6.058593 10.953125 17.429687 17.917969 29.945312 18.335938 12.835938-.589844 24.566406-7.445313 31.375-18.34375 6.839844-10.289063 4.398438-23.882813 1.601562-39.609375-4.457031-24.800781-8.984374-50.398438 18.09375-69.746094 4.695313-.460937 9.328126-1.148437 13.921876-1.964844 11.0625 4.855469 16.421874 10.949219 15.78125 18.152344-1.363282 9.054687 2.484374 18.109375 9.953124 23.414063 3.824219 2.484374 8.296876 3.789062 12.855469 3.761718 4.144531 0 8.222657-1.023437 11.871094-2.976562 8.515625-4.671875 13.652344-13.761719 13.265625-23.464844 0-3.6875-.175781-7.199219-.367188-10.617188-1.496093-12.371093.605469-24.914062 6.046876-36.125 49.015624-32.511718 79.535156-86.496093 82.121093-145.257812h16.199219v-48h-16v-8c0-4.417969 3.582031-8 8-8h24v16h48v-128h-48zm-416 0h112v16h-112zm16 32h80v80h-80zm-16 96h112v16h-112zm184.488281 279.65625c2.121094 11.824219 4.128907 22.984375.855469 27.902344-3.875 6.414062-10.589844 10.582031-18.054688 11.203125-7.097656-.640625-13.375-4.867188-16.632812-11.203125-6.527344-9.789063-1.734375-22.964844 3.335938-36.910156 4.960937-13.601563 10.085937-27.703126 5.601562-41.183594-3.90625-9.558594-9.417969-18.375-16.304688-26.066406 13.355469 3.046874 27.011719 4.589843 40.710938 4.601562h10.0625c-18.292969 23.121094-13.375 50.542969-9.574219 71.65625zm95.199219-65.425781c.175781 3.160156.34375 6.402343.34375 9.769531.359375 3.804688-1.539062 7.46875-4.855469 9.367188-2.574219 1.484374-5.746093 1.484374-8.320312 0-2.449219-2.15625-3.542969-5.464844-2.855469-8.65625.761719-9.398438-3.035156-18.589844-10.207031-24.710938 9.253906-2.835938 18.269531-6.40625 26.960937-10.671875-1.472656 8.214844-1.839844 16.589844-1.097656 24.902344zm-79.6875-22.230469h-16c-3.640625 0-7.199219-.304688-10.792969-.527344l-11.046875-27.609375 41.414063-20.664062-7.148438-14.320313-44.425781 22.175782-28.425781-14.253907-7.148438 14.320313 29.277344 14.640625 9.425781 23.566406c-77.367187-13.574219-135.039062-78.878906-138.945312-157.328125h80.175781c4.191406 45.289062 42.160156 79.945312 87.640625 80h16c45.480469-.054688 83.449219-34.710938 87.640625-80h80.175781c-4.378906 89.523438-78.183594 159.894531-167.816406 160zm184-176h-112v-16h112zm8-64c-13.253906 0-24 10.746094-24 24v8h-80v-40c.039062-30.910156 25.089844-55.960938 56-56h72v64zm56-80v96h-16v-96zm0 0" data-original="#000000" class="active-path" data-old_color="#000000" fill="#005FBD"/><path d="m320 88v16h16v-16c0-13.253906 10.746094-24 24-24h16v-16h-16c-22.082031.027344-39.972656 17.917969-40 40zm0 0" data-original="#000000" class="active-path" data-old_color="#000000" fill="#005FBD"/><path d="m80 64h16v48h-16zm0 0" data-original="#000000" class="active-path" data-old_color="#000000" fill="#005FBD"/><path d="m80 192h16v16h-16zm0 0" data-original="#000000" class="active-path" data-old_color="#000000" fill="#005FBD"/><path d="m392 48h16v16h-16zm0 0" data-original="#000000" class="active-path" data-old_color="#000000" fill="#005FBD"/></g> </svg>
